# xmcd
#
# Track frame offsets:
#	225
#	19922
#	32685
#	46455
#	60317
#	73972
#	83980
#	94770
#	109402
#	120627
#	131497
#	147710
#	161835
#	173562
#	186405
#	197285
#	209322
#	224150
#
# Disc length: 3200
#
# Revision: 5
# Processed by: cddbd v1.5.1PL0 Copyright (c) Steve Scherf et al.
# Submitted via: Grip 2.95
# Normalized: r3:TSWAP
#
DISCID=160c7d12
DTITLE=Various Artist - The Best Of Country Music Vol. 2 CD 1
DYEAR=1900
DGENRE=
TTITLE0=Mavericks - All You Ever Do Is Bring Me Down
TTITLE1=Susan Raye - L.A. International Airport
TTITLE2=Lee Marvin - Wandrin' Star
TTITLE3=Kingston Trio - Tom Dooley
TTITLE4=Jimy Hofer Band - Ig Wott Läbe Wi Ig Wott
TTITLE5=Ned Miller - From A Jack To A King
TTITLE6=Hank Locklin - Please Help Me I'm Falling
TTITLE7=Jeannie C. Riley - Harper Valley P.T.A.
TTITLE8=Roy Orbison - Blue Bayou
TTITLE9=Floyd Cramer - San Antonio Rose
TTITLE10=Alabama - Jukebox In My Mind
TTITLE11=Val and Bird - Dreamer On Your Side
TTITLE12=Patsy Cline - Walking After Midnight
TTITLE13=Don Williams - Some Broken Hearts Never Mend
TTITLE14=Shaklefords - Muddy Muddy River
TTITLE15=Skeeter Davis - End Of The World
TTITLE16=Bellamy Brothers - Let Your Love Flow
TTITLE17=Tanya Tucker - Oh What It Did To Me
EXTD=
EXTT0=
EXTT1=
EXTT2=
EXTT3=
EXTT4=
EXTT5=
EXTT6=
EXTT7=
EXTT8=
EXTT9=
EXTT10=
EXTT11=
EXTT12=
EXTT13=
EXTT14=
EXTT15=
EXTT16=
EXTT17=
PLAYORDER=
